HIERARCHY
ROOT joint_0
{
	OFFSET 0.000000 0.000000 0.000000
	CHANNELS 6 Xposition Yposition Zposition Zrotation Yrotation Xrotation 
	JOINT joint_1
	{
		OFFSET 6.590088 -1.122192 114.019043
		CHANNELS 3 Zrotation Yrotation Xrotation
		JOINT joint_2
		{
			OFFSET -5.956055 -0.820435 104.151001
			CHANNELS 3 Zrotation Yrotation Xrotation
			JOINT joint_3
			{
				OFFSET -7.343506 -1.103027 103.942993
				CHANNELS 3 Zrotation Yrotation Xrotation
				JOINT joint_4
				{
					OFFSET 3.109131 -2.857056 147.715942
					CHANNELS 3 Zrotation Yrotation Xrotation
					JOINT joint_5
					{
						OFFSET 28.592285 -2.852295 87.703979
						CHANNELS 3 Zrotation Yrotation Xrotation
						End Site
						{
							OFFSET 0.000000 0.000000 0.000000
						}
					}
				}
				JOINT joint_6
				{
					OFFSET -0.332520 -33.687378 82.401978
					CHANNELS 3 Zrotation Yrotation Xrotation
					JOINT joint_7
					{
						OFFSET -7.397461 -168.719177 -22.750977
						CHANNELS 3 Zrotation Yrotation Xrotation
						JOINT joint_8
						{
							OFFSET 17.065918 -24.903137 -272.721069
							CHANNELS 3 Zrotation Yrotation Xrotation
							JOINT joint_9
							{
								OFFSET 33.311279 -37.031616 -278.192993
								CHANNELS 3 Zrotation Yrotation Xrotation
								End Site
								{
									OFFSET 0.000000 0.000000 0.000000
								}
							}
						}
					}
				}
				JOINT joint_10
				{
					OFFSET 3.914307 30.461670 83.552979
					CHANNELS 3 Zrotation Yrotation Xrotation
					JOINT joint_11
					{
						OFFSET 15.543701 166.845459 -30.963013
						CHANNELS 3 Zrotation Yrotation Xrotation
						JOINT joint_12
						{
							OFFSET 35.734863 35.017700 -269.786011
							CHANNELS 3 Zrotation Yrotation Xrotation
							JOINT joint_13
							{
								OFFSET 70.506592 13.977783 -273.320007
								CHANNELS 3 Zrotation Yrotation Xrotation
								End Site
								{
									OFFSET 0.000000 0.000000 0.000000
								}
							}
						}
					}
				}
			}
		}
	}
	JOINT joint_14
	{
		OFFSET -0.314697 -95.093994 -116.004028
		CHANNELS 3 Zrotation Yrotation Xrotation
		JOINT joint_15
		{
			OFFSET -22.490723 2.017883 -455.510986
			CHANNELS 3 Zrotation Yrotation Xrotation
			JOINT joint_16
			{
				OFFSET -46.427490 7.144104 -496.360985
				CHANNELS 3 Zrotation Yrotation Xrotation
				JOINT joint_17
				{
					OFFSET 209.055420 -37.122803 -85.191002
					CHANNELS 3 Zrotation Yrotation Xrotation
					End Site
					{
						OFFSET 0.000000 0.000000 0.000000
					}
				}
			}
		}
	}
	JOINT joint_18
	{
		OFFSET 5.652832 94.642578 -116.244019
		CHANNELS 3 Zrotation Yrotation Xrotation
		JOINT joint_19
		{
			OFFSET -12.379883 -7.332642 -455.843994
			CHANNELS 3 Zrotation Yrotation Xrotation
			JOINT joint_20
			{
				OFFSET -45.227051 -8.172241 -496.457985
				CHANNELS 3 Zrotation Yrotation Xrotation
				JOINT joint_21
				{
					OFFSET 210.522949 -11.530396 -88.809004
					CHANNELS 3 Zrotation Yrotation Xrotation
					End Site
					{
						OFFSET 0.000000 0.000000 0.000000
					}
				}
			}
		}
	}
}
MOTION
Frames: 16
Frame Time: 0.016667
-2746.694580 944.651855 1181.363037 -1.369179 -0.423279 0.082158 -0.604966 0.318192 -0.725494 -0.560012 -0.062108 0.140178 -0.572809 0.113477 -0.065534 -0.166475 -1.990942 0.324616 0.000000 0.000000 0.000000 -0.090130 1.932663 0.168315 -0.006746 1.971346 -0.947833 0.488744 -1.130843 2.748427 0.000000 0.000000 0.000000 1.647430 2.913214 0.478187 0.640387 2.730334 0.426994 0.430033 -0.350436 1.725610 0.000000 0.000000 0.000000 -3.546048 0.260213 -1.077617 -3.492113 2.033763 -2.020719 -3.610827 -0.119785 -1.484305 0.000000 0.000000 0.000000 2.095658 -0.043691 -0.347114 2.040633 1.598357 0.701731 2.076299 -1.000183 0.820525 0.000000 0.000000 0.000000 
-2746.800049 944.745056 1181.369019 -1.391738 -0.421497 0.078795 -0.615531 0.328785 -0.713039 -0.571713 -0.063648 0.134777 -0.583764 0.116218 -0.061013 -0.162896 -1.955547 0.316771 0.000000 0.000000 0.000000 -0.085737 1.930152 0.197402 -0.009583 1.973520 -1.003436 0.489878 -1.137898 2.748408 0.000000 0.000000 0.000000 1.644456 2.917853 0.481350 0.634973 2.733056 0.447070 0.399370 -0.410933 1.619644 0.000000 0.000000 0.000000 -3.536921 0.250438 -1.077755 -3.482841 2.028635 -2.023104 -3.602055 -0.097356 -1.476769 0.000000 0.000000 0.000000 2.103472 -0.040385 -0.367350 2.047412 1.578555 0.732941 2.084975 -0.986609 0.824923 0.000000 0.000000 0.000000 
-2746.911621 944.838257 1181.373047 -1.414853 -0.415604 0.075601 -0.624389 0.337300 -0.701778 -0.581557 -0.064749 0.130387 -0.592992 0.117863 -0.057111 -0.159338 -1.923550 0.308680 0.000000 0.000000 0.000000 -0.079901 1.926398 0.228347 -0.012764 1.974614 -1.055475 0.489571 -1.140632 2.741654 0.000000 0.000000 0.000000 1.641946 2.918252 0.477566 0.630042 2.731037 0.465425 0.373664 -0.460684 1.530632 0.000000 0.000000 0.000000 -3.527753 0.235424 -1.078578 -3.473600 2.024116 -2.024068 -3.593173 -0.075773 -1.469341 0.000000 0.000000 0.000000 2.111468 -0.038643 -0.387011 2.054515 1.552430 0.762466 2.093629 -0.969839 0.829488 0.000000 0.000000 0.000000 
-2747.025146 944.927307 1181.375000 -1.439338 -0.402653 0.072260 -0.630226 0.340894 -0.693008 -0.588085 -0.066743 0.127960 -0.599157 0.121038 -0.055152 -0.156635 -1.896998 0.302718 0.000000 0.000000 0.000000 -0.075365 1.921251 0.262796 -0.016462 1.974131 -1.102242 0.487068 -1.136530 2.724877 0.000000 0.000000 0.000000 1.636832 2.912041 0.466239 0.625746 2.722533 0.481119 0.355577 -0.491852 1.467238 0.000000 0.000000 0.000000 -3.518315 0.210715 -1.080272 -3.464203 2.023266 -2.022067 -3.583909 -0.057015 -1.462265 0.000000 0.000000 0.000000 2.119493 -0.039246 -0.404696 2.061926 1.515913 0.788546 2.101986 -0.948403 0.834186 0.000000 0.000000 0.000000 
-2747.144775 945.015320 1181.376953 -1.464872 -0.385007 0.069177 -0.633669 0.341457 -0.686269 -0.591952 -0.068869 0.127687 -0.602929 0.124274 -0.054834 -0.154426 -1.872615 0.298069 0.000000 0.000000 0.000000 -0.071575 1.914671 0.300296 -0.020530 1.972168 -1.146122 0.483090 -1.127697 2.701596 0.000000 0.000000 0.000000 1.630309 2.901239 0.447987 0.621954 2.709231 0.495737 0.342432 -0.511758 1.420628 0.000000 0.000000 0.000000 -3.508837 0.180019 -1.082747 -3.454852 2.022906 -2.018391 -3.574525 -0.038256 -1.455143 0.000000 0.000000 0.000000 2.127865 -0.041983 -0.421691 2.069833 1.473045 0.812479 2.110429 -0.922958 0.839142 0.000000 0.000000 0.000000 
-2747.283203 945.105042 1181.376953 -1.488788 -0.368791 0.066912 -0.636503 0.348514 -0.681532 -0.595214 -0.072460 0.126768 -0.605980 0.128416 -0.053850 -0.152993 -1.855791 0.295139 0.000000 0.000000 0.000000 -0.064763 1.905368 0.338313 -0.024137 1.967764 -1.187902 0.479420 -1.117987 2.681937 0.000000 0.000000 0.000000 1.622824 2.887080 0.425695 0.619314 2.693083 0.504863 0.334529 -0.528591 1.393564 0.000000 0.000000 0.000000 -3.499617 0.150012 -1.085546 -3.445718 2.022287 -2.015983 -3.565482 -0.017701 -1.447838 0.000000 0.000000 0.000000 2.135797 -0.051869 -0.437368 2.077106 1.444105 0.832773 2.118252 -0.900285 0.843684 0.000000 0.000000 0.000000 
-2747.446777 945.197327 1181.376953 -1.511070 -0.354489 0.066690 -0.638258 0.361890 -0.681342 -0.597167 -0.074590 0.126375 -0.607810 0.132853 -0.053447 -0.153290 -1.846304 0.296876 0.000000 0.000000 0.000000 -0.055390 1.892280 0.377851 -0.027224 1.959842 -1.227765 0.475945 -1.105250 2.667393 0.000000 0.000000 0.000000 1.612113 2.868446 0.400216 0.618294 2.674028 0.503418 0.334223 -0.542236 1.395077 0.000000 0.000000 0.000000 -3.490372 0.121334 -1.089471 -3.436521 2.019935 -2.015898 -3.556586 0.006758 -1.439898 0.000000 0.000000 0.000000 2.143657 -0.072371 -0.452816 2.083944 1.435617 0.848781 2.125704 -0.880425 0.847915 0.000000 0.000000 0.000000 
-2747.628418 945.291260 1181.375000 -1.531415 -0.341866 0.067505 -0.638795 0.381960 -0.684223 -0.597766 -0.078445 0.126863 -0.608348 0.138084 -0.053390 -0.154454 -1.841780 0.300835 0.000000 0.000000 0.000000 -0.045929 1.876692 0.417878 -0.029849 1.949278 -1.264964 0.472657 -1.091009 2.656182 0.000000 0.000000 0.000000 1.597903 2.846211 0.371093 0.618397 2.652387 0.496471 0.339192 -0.552037 1.416101 0.000000 0.000000 0.000000 -3.481435 0.093800 -1.094142 -3.427633 2.017021 -2.016811 -3.548082 0.033551 -1.431701 0.000000 0.000000 0.000000 2.151092 -0.099545 -0.467198 2.090173 1.440773 0.861005 2.132527 -0.862914 0.851751 0.000000 0.000000 0.000000 
-2747.817139 945.386108 1181.369019 -1.549761 -0.332324 0.066777 -0.638786 0.406811 -0.686103 -0.597904 -0.083514 0.127873 -0.608436 0.144789 -0.053318 -0.155321 -1.840589 0.303574 0.000000 0.000000 0.000000 -0.037002 1.859874 0.457602 -0.031689 1.937220 -1.300313 0.470726 -1.081009 2.651315 0.000000 0.000000 0.000000 1.584276 2.823253 0.340673 0.618778 2.629476 0.493445 0.343614 -0.563833 1.435425 0.000000 0.000000 0.000000 -3.473279 0.069196 -1.097695 -3.419524 2.014882 -2.016870 -3.540260 0.059711 -1.423893 0.000000 0.000000 0.000000 2.157947 -0.130986 -0.477065 2.095779 1.459727 0.868812 2.138742 -0.851997 0.854968 0.000000 0.000000 0.000000 
-2748.004639 945.481995 1181.355957 -1.566289 -0.326699 0.062242 -0.637681 0.435307 -0.683189 -0.597251 -0.087916 0.128790 -0.607748 0.152000 -0.053564 -0.155182 -1.842345 0.302939 0.000000 0.000000 0.000000 -0.030197 1.842640 0.495098 -0.032468 1.924137 -1.333601 0.470902 -1.078303 2.655498 0.000000 0.000000 0.000000 1.571187 2.799530 0.309904 0.619168 2.605171 0.495741 0.346471 -0.578171 1.449251 0.000000 0.000000 0.000000 -3.465896 0.050890 -1.098601 -3.412219 2.010409 -2.014516 -3.532898 0.085187 -1.416397 0.000000 0.000000 0.000000 2.164348 -0.165920 -0.478288 2.101068 1.493957 0.869308 2.144467 -0.850484 0.857464 0.000000 0.000000 0.000000 
-2748.200439 945.579712 1181.339966 -1.580589 -0.324898 0.056032 -0.636015 0.471400 -0.678624 -0.596233 -0.096463 0.129851 -0.606645 0.161618 -0.053853 -0.154465 -1.846405 0.300308 0.000000 0.000000 0.000000 -0.024124 1.824295 0.532408 -0.032423 1.909672 -1.365453 0.472622 -1.080785 2.666496 0.000000 0.000000 0.000000 1.557943 2.775314 0.277245 0.620010 2.579861 0.502807 0.348565 -0.595775 1.460791 0.000000 0.000000 0.000000 -3.459205 0.036239 -1.098365 -3.405607 2.006839 -2.011307 -3.526137 0.110857 -1.409110 0.000000 0.000000 0.000000 2.170092 -0.204329 -0.474810 2.105679 1.541904 0.865285 2.149518 -0.855303 0.859328 0.000000 0.000000 0.000000 
-2748.413086 945.685181 1181.317993 -1.588996 -0.327099 0.051339 -0.635436 0.511804 -0.675328 -0.596287 -0.103839 0.130618 -0.606583 0.171930 -0.053951 -0.153556 -1.846112 0.297461 0.000000 0.000000 0.000000 -0.021185 1.804459 0.569328 -0.031589 1.893040 -1.394178 0.475291 -1.084970 2.683258 0.000000 0.000000 0.000000 1.543864 2.752773 0.246045 0.620798 2.556174 0.513470 0.347980 -0.619246 1.463199 0.000000 0.000000 0.000000 -3.454354 0.020432 -1.099353 -3.400744 2.012890 -2.010209 -3.521518 0.132612 -1.403375 0.000000 0.000000 0.000000 2.173122 -0.243472 -0.474720 2.107272 1.597056 0.864413 2.152155 -0.863570 0.859982 0.000000 0.000000 0.000000 
-2748.648193 945.803223 1181.291016 -1.589888 -0.334125 0.049931 -0.637576 0.559886 -0.674395 -0.599081 -0.113753 0.130522 -0.609124 0.184239 -0.053610 -0.151616 -1.839316 0.292016 0.000000 0.000000 0.000000 -0.018703 1.782034 0.605009 -0.029915 1.873479 -1.420238 0.478943 -1.090601 2.706342 0.000000 0.000000 0.000000 1.532461 2.731614 0.214042 0.621601 2.532479 0.532967 0.343580 -0.649808 1.452341 0.000000 0.000000 0.000000 -3.452084 0.002957 -1.102990 -3.398370 2.030637 -2.012474 -3.519946 0.150315 -1.399580 0.000000 0.000000 0.000000 2.172287 -0.282187 -0.482013 2.104530 1.658210 0.870079 2.151379 -0.874513 0.859047 0.000000 0.000000 0.000000 
-2748.901367 945.928040 1181.260010 -1.584850 -0.345261 0.050083 -0.640980 0.613280 -0.676014 -0.602960 -0.123511 0.132068 -0.612869 0.197285 -0.053379 -0.149002 -1.828782 0.284820 0.000000 0.000000 0.000000 -0.018774 1.758353 0.640554 -0.027447 1.852110 -1.443972 0.483755 -1.098943 2.735789 0.000000 0.000000 0.000000 1.520352 2.712432 0.182214 0.622529 2.510475 0.557377 0.336328 -0.686985 1.431821 0.000000 0.000000 0.000000 -3.451578 -0.015795 -1.107630 -3.397638 2.058347 -2.017249 -3.520467 0.164555 -1.397236 0.000000 0.000000 0.000000 2.168744 -0.321757 -0.492506 2.098781 1.726830 0.878659 2.148170 -0.888098 0.856938 0.000000 0.000000 0.000000 
-2749.165283 946.053589 1181.223999 -1.574629 -0.359979 0.049401 -0.645760 0.671019 -0.676813 -0.608351 -0.134229 0.133050 -0.618059 0.211491 -0.053091 -0.146611 -1.811961 0.278886 0.000000 0.000000 0.000000 -0.018614 1.736886 0.678611 -0.024511 1.832779 -1.461634 0.489251 -1.111668 2.765880 0.000000 0.000000 0.000000 1.508175 2.700231 0.158226 0.623110 2.496805 0.574590 0.326586 -0.732332 1.403305 0.000000 0.000000 0.000000 -3.452584 -0.036544 -1.111754 -3.398333 2.097046 -2.021958 -3.522630 0.175794 -1.396084 0.000000 0.000000 0.000000 2.164211 -0.360852 -0.502203 2.091979 1.800177 0.887767 2.144138 -0.903736 0.854367 0.000000 0.000000 0.000000 
-2749.440430 946.173035 1181.187012 -1.557132 -0.379441 0.047209 -0.652567 0.735619 -0.675869 -0.616116 -0.146525 0.131227 -0.625241 0.226043 -0.050451 -0.143950 -1.785110 0.273043 0.000000 0.000000 0.000000 -0.018342 1.718726 0.719351 -0.021099 1.816407 -1.469495 0.495207 -1.130701 2.792690 0.000000 0.000000 0.000000 1.492918 2.698477 0.147731 0.623442 2.496835 0.576106 0.314018 -0.792812 1.366859 0.000000 0.000000 0.000000 -3.455653 -0.059566 -1.114104 -3.400901 2.150347 -2.027025 -3.527004 0.182646 -1.396598 0.000000 0.000000 0.000000 2.158505 -0.397677 -0.508241 2.084157 1.876637 0.894391 2.138968 -0.918994 0.851336 0.000000 0.000000 0.000000 
